<svg width="99" height="186" viewBox="0 0 99 186" fill="none" xmlns="http://www.w3.org/2000/svg">
<path fill-rule="evenodd" clip-rule="evenodd" d="M31.1904 13.423C24.1086 21.5328 20.3701 29.5226 20.3689 40.5759C20.6406 52.8478 25.9469 60.9543 34.1014 69.2498C35.1418 70.292 42.7415 75.9718 41.7581 78.0512C41.0593 79.5287 34.1639 79.665 29.6723 81.0199C25.033 82.4194 24.9235 82.4741 22.2339 83.9025C12.9913 88.811 6.08171 95.7041 2.55059 103.798C0.157571 111.156 -1.09012 119.181 1.24125 126.709C6.25511 142.899 21.4487 153.743 36.9531 156.34C43.0735 157.335 53.1884 157.64 58.1927 161.599C63.74 165.987 59.838 175.114 64.4142 180.631C72.0106 187.721 80.6864 187.859 87.4601 180.631C92.0067 174.714 92.879 165.916 91.6301 158.037C90.8298 152.989 88.5134 148.241 84.9395 144.587C78.6039 138.109 71.0215 135.423 61.5111 133.423C51.3012 131.333 23.1385 130.289 28.8568 112.115C33.6424 96.9046 61.8597 104.19 71.502 92.6691C75.265 87.1393 75.7551 81.0595 74.5396 74.4331C71.7939 65.1766 55.2427 56.1735 49.6994 46.0459C45.7291 38.7925 52.5689 30.559 60.6989 29.05C67.7229 27.7463 75.4009 28.6835 82.7757 28.7437C87.2983 28.7806 91.738 27.8119 94.8603 24.5399C97.9907 21.2593 99.4585 16.2865 98.759 11.8063C98.6623 11.1875 98.5335 10.575 98.367 9.96223C97.5748 7.04766 95.7077 4.4696 93.0881 2.96635C92.5934 2.68244 92.0877 2.42175 91.582 2.18295C87.4581 0.235492 82.7864 0.0129711 78.2258 0.00194246C61.3918 -0.0387664 44.403 0.438611 31.1904 13.423Z" fill="#FAED5D"/>
</svg>
